<?xml version="1.0" encoding="UTF-8"?><svg id="Layer_4" xmlns="http://www.w3.org/2000/svg" viewBox="0 0 600 500"><defs><style>.cls-1{fill:#ffefe1;}.cls-2,.cls-3{fill:#806c59;}.cls-4{fill:#ddcdbc;}.cls-3{font-family:ComicSansMS-Bold, 'Comic Sans MS';font-size:57.04px;}</style></defs><rect class="cls-1" width="600" height="500"/><g><path class="cls-2" d="M301.44,280.15c6.52-5.57,18.99-11.86,35.19,.54,7.06,5.4,15.83,8.2,24.67,7.31,4.4-.44,8.88-1.69,12.79-4.18,1.09-.69,2.43,.39,1.97,1.59-2.49,6.48-6.79,16.49-18.84,23.81-9.03,5.49-19.7,7.53-30.21,6.38-16.56-1.82-27.39-10.5-30.08-21.79-1.2-5.03,.57-10.31,4.5-13.67Z"/><path class="cls-2" d="M298.56,280.15c-6.52-5.57-18.99-11.86-35.19,.54-7.06,5.4-15.83,8.2-24.67,7.31-4.4-.44-8.88-1.69-12.79-4.18-1.09-.69-2.43,.39-1.97,1.59,2.49,6.48,6.79,16.49,18.84,23.81,9.03,5.49,19.7,7.53,30.21,6.38,16.56-1.82,27.39-10.5,30.08-21.79,1.2-5.03-.57-10.31-4.5-13.67Z"/></g><text class="cls-3" transform="translate(71.2 400.18)"><tspan x="0" y="0">COOKING BABA</tspan></text><path class="cls-2" d="M372.5,124.57c0-17.95-14.55-32.5-32.5-32.5-5.91,0-11.45,1.59-16.23,4.35-5.93-6.36-14.38-10.35-23.77-10.35s-17.84,3.98-23.77,10.35c-4.78-2.76-10.32-4.35-16.23-4.35-17.95,0-32.5,14.55-32.5,32.5,0,15.01,10.17,27.63,24,31.37v82.13h97v-82.13c13.83-3.74,24-16.36,24-31.37Z"/><rect class="cls-4" x="270.5" y="152.07" width="4" height="86" rx="2" ry="2"/><rect class="cls-4" x="325.5" y="152.07" width="4" height="86" rx="2" ry="2"/><rect class="cls-4" x="298" y="152.07" width="4" height="86" rx="2" ry="2"/></svg>