<?xml version="1.0" encoding="UTF-8"?><svg id="Layer_2" xmlns="http://www.w3.org/2000/svg" viewBox="0 0 600 500"><defs><style>.cls-1{fill:#714ce0;}.cls-1,.cls-2,.cls-3{font-family:JosefinSans-SemiBold, 'Josefin Sans';font-size:59.15px;}.cls-2{fill:#e35d67;}.cls-3{fill:#abe98b;}.cls-4{fill:#fff;}.cls-5{stroke:#e35d67;}.cls-5,.cls-6,.cls-7,.cls-8{fill:none;stroke-miterlimit:10;stroke-width:2px;}.cls-6{stroke:#714ce0;}.cls-7{stroke:#abe98b;}.cls-8{stroke:#fff;}</style></defs><rect width="600" height="500"/><line class="cls-6" x1="144.59" y1="127.06" x2="144.59" y2="127.03"/><g><circle class="cls-4" cx="217.86" cy="126.81" r="7.21"/><path class="cls-8" d="M266.13,77.41c10.97-2.1,22.29-3.19,33.87-3.19,99.09,0,179.41,80.33,179.41,179.41s-80.33,179.41-179.41,179.41S120.59,352.72,120.59,253.63c0-34.42,9.69-66.58,26.5-93.89"/><path class="cls-8" d="M300,433.04c-99.09,0-179.41-80.33-179.41-179.41,0-34.42,9.69-66.58,26.5-93.89"/><g><g><polyline class="cls-5" points="265.87 76.81 265.99 76.83 220.02 67.01 192.64 81.42 179.67 111.68 152.29 124.65 146.83 160.49"/><polyline class="cls-6" points="146.84 160.46 155.17 128.98 182.55 113.12 195.52 82.86 221.46 71.33 265.87 76.81"/><polyline class="cls-7" points="146.83 160.49 156.61 133.3 185.63 117.28 198.4 87.18 224.34 74.21 265.99 76.83"/></g><path class="cls-8" d="M266.13,77.41c10.97-2.1,22.29-3.19,33.87-3.19,99.09,0,179.41,80.33,179.41,179.41,0,2.35-.05,4.69-.13,7.02"/></g></g><text class="cls-3" transform="translate(145.93 255.81)"><tspan x="0" y="0">COMFORT </tspan><tspan x="71.33" y="70.98">ZONE</tspan></text><text class="cls-1" transform="translate(145.04 256.25)"><tspan x="0" y="0">COMFORT </tspan><tspan x="71.33" y="70.98">ZONE</tspan></text><text class="cls-2" transform="translate(144.16 257.69)"><tspan x="0" y="0">COMFORT </tspan><tspan x="71.33" y="70.98">ZONE</tspan></text></svg>