<?xml version="1.0" encoding="UTF-8"?><svg id="Layer_2" xmlns="http://www.w3.org/2000/svg" viewBox="0 0 600 500"><defs><style>.cls-1{fill:#f3b9b3;}.cls-2{fill:#f8dbc3;}.cls-3{fill:#98beaa;}.cls-4{fill:#b73c56;}.cls-5{fill:#263657;}.cls-6{fill:#2f466b;}</style></defs><rect class="cls-6" width="600" height="500"/><g><g><polygon class="cls-4" points="408.5 147.29 475.5 189.29 494.5 104.29 427.5 63.29 408.5 147.29"/><polygon class="cls-3" points="342.5 165.29 408.5 147.29 427.5 63.29 361.5 81.29 342.5 165.29"/><polygon class="cls-2" points="409.5 208.29 475.5 189.29 408.5 147.29 342.5 165.29 409.5 208.29"/></g><g><polygon class="cls-2" points="154.5 162.29 213.5 231.29 245.5 172.29 185.5 102.29 154.5 162.29"/><polygon class="cls-1" points="85.5 194.29 154.5 162.29 185.5 102.29 116.5 135.29 85.5 194.29"/><polygon class="cls-5" points="144.5 264.29 213.5 231.29 154.5 162.29 85.5 194.29 144.5 264.29"/></g><g><polygon class="cls-4" points="353.31 292.23 286.06 355.8 347.15 427.51 415.92 365.23 353.31 292.23"/><polygon class="cls-3" points="258.43 365.12 286.06 355.8 353.31 292.23 326.44 302.19 258.43 365.12"/><polygon class="cls-2" points="320.93 436.71 347.15 427.51 286.06 355.8 258.43 365.12 320.93 436.71"/></g></g></svg>