<?xml version="1.0" encoding="UTF-8"?><svg id="Layer_2" xmlns="http://www.w3.org/2000/svg" viewBox="0 0 600 500"><defs><style>.cls-1{fill:#f3b9b3;}.cls-2{fill:#f4bf4f;}.cls-3{fill:#f8dbc3;}.cls-4{fill:#ed6c5f;}.cls-5{fill:#fff;}.cls-6{fill:#98beaa;}.cls-7{fill:#b73c56;}.cls-8{fill:#d3cfcf;}.cls-9{fill:#61c554;}.cls-10{fill:#263657;}.cls-11{fill:#2f466b;}</style></defs><rect class="cls-11" width="600" height="500"/><g><g><polygon class="cls-7" points="408.5 177.29 475.5 219.29 494.5 134.29 427.5 93.29 408.5 177.29"/><polygon class="cls-6" points="342.5 195.29 408.5 177.29 427.5 93.29 361.5 111.29 342.5 195.29"/><polygon class="cls-3" points="409.5 238.29 475.5 219.29 408.5 177.29 342.5 195.29 409.5 238.29"/></g><g><polygon class="cls-3" points="154.5 192.29 213.5 261.29 245.5 202.29 185.5 132.29 154.5 192.29"/><polygon class="cls-1" points="85.5 224.29 154.5 192.29 185.5 132.29 116.5 165.29 85.5 224.29"/><polygon class="cls-10" points="144.5 294.29 213.5 261.29 154.5 192.29 85.5 224.29 144.5 294.29"/></g><g><polygon class="cls-7" points="353.31 322.23 286.06 385.8 347.15 457.51 415.92 395.23 353.31 322.23"/><polygon class="cls-6" points="258.43 395.12 286.06 385.8 353.31 322.23 326.44 332.19 258.43 395.12"/><polygon class="cls-3" points="320.93 466.71 347.15 457.51 286.06 385.8 258.43 395.12 320.93 466.71"/></g></g><rect class="cls-5" width="600" height="54"/><rect class="cls-5" y="28" width="600" height="21"/><rect class="cls-8" x="30" y="25" width="560" height="21" rx="10.5" ry="10.5"/><circle class="cls-4" cx="20" cy="15" r="5"/><circle class="cls-2" cx="40" cy="15" r="5"/><circle class="cls-9" cx="60" cy="15" r="5"/></svg>