<?xml version="1.0" encoding="UTF-8"?><svg id="Layer_2" xmlns="http://www.w3.org/2000/svg" viewBox="0 0 600 500"><defs><style>.cls-1{fill:#d9bfff;}.cls-2{fill:#fff;stroke:#ddd;}.cls-2,.cls-3{stroke-miterlimit:10;stroke-width:7px;}.cls-3{fill:#783c9e;stroke:#5b317a;}</style></defs><rect class="cls-1" width="600" height="500"/><g><g><circle class="cls-3" cx="300" cy="229.75" r="129.59"/><rect class="cls-3" x="268.72" y="90.1" width="62.56" height="20.11" rx="10.05" ry="10.05"/></g><g><g><path class="cls-2" d="M211.46,395.33v-57.99c0-10.73,11.22-17.77,20.88-13.1l57.99,28.02c10.8,5.22,11,20.52,.35,26.03l-57.99,29.97c-9.68,5.01-21.23-2.02-21.23-12.93Z"/><path class="cls-2" d="M388.54,395.33v-57.99c0-10.73-11.22-17.77-20.88-13.1l-57.99,28.02c-10.8,5.22-11,20.52-.35,26.03l57.99,29.97c9.68,5.01,21.23-2.02,21.23-12.93Z"/></g><rect class="cls-2" x="294.16" y="346.87" width="11.68" height="38.92" rx="5.84" ry="5.84"/></g></g></svg>