<?xml version="1.0" encoding="UTF-8"?><svg id="Layer_2" xmlns="http://www.w3.org/2000/svg" xmlns:xlink="http://www.w3.org/1999/xlink" viewBox="0 0 600 500"><defs><style>.cls-1{fill:none;}.cls-2{fill:#b1a7c9;}.cls-3{fill:#5b317a;}.cls-4{fill:url(#radial-gradient);}.cls-4,.cls-5,.cls-6{stroke-miterlimit:10;stroke-width:7px;}.cls-4,.cls-6{stroke:#5b317a;}.cls-5{fill:#fff;stroke:#ddd;}.cls-6{fill:#703f99;}</style><radialGradient id="radial-gradient" cx="300.17" cy="178.87" fx="300.17" fy="178.87" r="106.83" gradientTransform="matrix(1, 0, 0, 1, 0, 0)" gradientUnits="userSpaceOnUse"><stop offset="0" stop-color="#783492"/><stop offset="0" stop-color="#783291"/><stop offset=".07" stop-color="#792b8f"/><stop offset=".25" stop-color="#7a2a8f"/><stop offset=".58" stop-color="#752a8f"/><stop offset=".92" stop-color="#692c90"/><stop offset="1" stop-color="#662d91"/></radialGradient><clipPath id="clippath"><path class="cls-1" d="M928.3,475.53c-9.32,0-19.71-.73-30.9-2.65-21.75-3.73-41.43-15.13-55.43-32.11-14.04-17.03-21.42-38.55-20.78-60.58,1.11-38.07,15.62-73.58,16.65-76.05,19.83-49.14,51.51-64.11,74.6-68.01,25-4.23,45.27,3.56,46.12,3.9l.8,.35c1.55,.74,38.34,18.32,74.53,43.45,51.8,35.96,75.54,69.01,70.56,98.21-4.24,24.85-23.29,45.96-56.62,62.74-25.04,12.6-52.08,19.63-65.97,22.7-4.1,.9-8.47,1.96-13.36,3.22-8.23,2.13-22.25,4.84-40.21,4.84Zm-67.37-161.8c-.3,.73-13.77,33.54-14.75,67.2-.47,15.98,4.89,31.59,15.08,43.95,10.19,12.35,24.52,20.65,40.37,23.37,29.21,5.01,52.13,.44,60.63-1.75,5.18-1.34,9.83-2.46,14.22-3.43,12.75-2.82,37.51-9.24,60.12-20.62,25.85-13.01,40.39-28.02,43.22-44.61,3.06-17.98-18.79-44.7-59.95-73.32-32.33-22.48-66.27-39.16-70.75-41.33-2.25-.78-16.58-5.37-33.47-2.24-23.98,4.44-42.37,22.14-54.65,52.61l-.07,.16Z"/></clipPath><clipPath id="clippath-2"><path class="cls-1" d="M728.45,312.47c-23.3,0-49.06-21.1-63.4-54.18l-.28-.65c-7.98-18.4-16.23-37.43-13.66-54.7,2.77-18.61,17.74-31.27,29.7-36.46,10.58-4.59,27.5-6.27,39.35-.61,18.56,8.86,29.16,30.47,38.43,51.85,7.83,18.05,11.03,37.03,9.01,53.44-2.31,18.81-11.11,32.43-24.77,38.36-4.59,1.99-9.44,2.94-14.38,2.94Zm-25.89-125.19c-4.16,0-8.81,.85-11.8,2.14-6.57,2.85-13.8,9.67-14.92,17.21-1.52,10.2,5.29,25.89,11.87,41.06l.28,.65c12.06,27.81,33.65,43.12,44.9,38.25,5.12-2.22,8.74-8.95,9.91-18.47,1.46-11.88-1.14-26.62-7.13-40.45h0c-7.58-17.48-16.01-34.33-26.26-39.23-1.69-.81-4.16-1.16-6.83-1.16Z"/></clipPath><clipPath id="clippath-4"><path class="cls-1" d="M1004.27,109.16c-5.9,7.03-13.96,14.2-24.22,21.55-16.45,12.57-39,14.32-65.1,16.35-25,1.94-53.35,4.14-79.78,16.88-17.89,8.62-39.44,4.58-52.41-9.83h0c-17.01-18.9-13.11-45.85-6.84-65.14,4.87-14.96,12.31-29.29,22.12-42.58,10.78-14.59,23.75-28.88,45.62-34.63,22.4-5.9,50.72-2.06,89.12,12.08,5.89,2.17,11.68,4.06,17.19,5.63,19.81,5.63,61.04,17.34,65.96,45.63,1.94,11.14-1.9,22.42-11.67,34.06Zm-202.92,28.22h0c5.58,6.2,15.03,7.86,22.98,4.03,30.67-14.77,61.49-17.16,88.69-19.28,22.21-1.73,41.39-3.21,51.95-11.36l.36-.27c25.9-18.54,26.43-28.51,25.98-31.12-.76-4.38-6.32-9.4-15.66-14.14-9.76-4.96-21.39-8.56-32.5-11.72-6.12-1.74-12.52-3.83-19-6.22-32.91-12.12-57.15-15.84-74.12-11.37-13.62,3.59-22.29,12.34-31.87,25.31-8.21,11.12-14.42,23.05-18.46,35.46-4.23,13.02-7.39,30.65,1.64,40.68Z"/></clipPath><clipPath id="clippath-6"><path class="cls-1" d="M806.47,469.24c-5.99,7.14-13.23,14.63-21.89,21.97-16.84,14.26-38.22,22.01-60.22,21.82-22.07-.19-43.3-8.37-59.77-23.02-28.45-25.32-46.33-59.27-47.55-61.64-24.89-46.78-16-80.67-4.15-100.87,12.83-21.87,31.83-32.39,32.63-32.83l.78-.39c1.56-.71,38.68-17.59,81.19-29.16,60.85-16.57,101.42-13.51,120.59,9.07,16.31,19.22,20.24,47.38,11.66,83.7-6.44,27.28-18.44,52.51-25.02,65.13-1.94,3.72-3.94,7.74-6.12,12.3-3.66,7.67-10.59,20.15-22.14,33.91Zm-167.25-52.4c.36,.7,16.85,32.11,41.99,54.49,11.94,10.63,27.34,16.56,43.36,16.7,16.01,.14,31.58-5.51,43.85-15.9,22.61-19.15,33.85-39.65,37.63-47.57,2.3-4.83,4.43-9.11,6.51-13.1,6.04-11.58,17.03-34.68,22.85-59.31,6.65-28.16,4.5-48.95-6.39-61.78-11.8-13.9-46.32-14.34-94.7-1.2-38,10.32-72.59,25.59-77.14,27.63-2.05,1.22-14.77,9.25-23.23,24.2-12.01,21.22-10.27,46.69,5.18,75.68l.08,.15Z"/></clipPath><clipPath id="clippath-8"><path class="cls-1" d="M1078.77,164.35c-14.98,17.85-47.7,24.01-82.26,13.74l-.68-.2c-19.23-5.72-39.1-11.62-50.68-24.7-12.47-14.08-12.55-33.68-8.83-46.19,3.29-11.06,12.87-25.1,24.83-30.54,18.72-8.52,42.09-2.75,64.42,3.89,18.86,5.61,35.46,15.36,46.73,27.45,12.92,13.86,17.7,29.36,13.46,43.63-1.43,4.8-3.81,9.12-6.99,12.91Zm-112.54-60.64c-2.67,3.19-5.02,7.29-5.94,10.42-2.04,6.86-1.46,16.79,3.59,22.49,6.83,7.72,23.23,12.59,39.09,17.3l.68,.2c29.05,8.64,54.66,1.94,58.16-9.81,1.59-5.35-1.24-12.45-7.78-19.46-8.16-8.76-21.13-16.24-35.57-20.54h0c-18.26-5.43-36.59-9.81-46.94-5.1-1.7,.78-3.56,2.44-5.28,4.49Z"/></clipPath></defs><rect class="cls-2" width="600" height="500"/><g><g><circle class="cls-4" cx="300.17" cy="178.87" r="106.83"/><rect class="cls-6" x="274.39" y="63.76" width="51.57" height="16.58" rx="8.29" ry="8.29"/></g><g><g><path class="cls-5" d="M227.18,315.37v-47.81c0-8.85,9.25-14.65,17.21-10.8l47.81,23.1c8.9,4.3,9.07,16.92,.29,21.46l-47.81,24.71c-7.98,4.13-17.5-1.67-17.5-10.66Z"/><path class="cls-5" d="M373.16,315.37v-47.81c0-8.85-9.25-14.65-17.21-10.8l-47.81,23.1c-8.9,4.3-9.07,16.92-.29,21.46l47.81,24.71c7.98,4.13,17.5-1.67,17.5-10.66Z"/></g><rect class="cls-5" x="295.36" y="275.43" width="9.63" height="32.08" rx="4.81" ry="4.81"/></g></g><g><path class="cls-3" d="M101.82,377.99l12.46-.37h22.81v3.33h-35.27v-2.96Zm12.41-5.34c0-10.42,5.09-16.66,15.5-16.66,3.7,0,7.34,.59,11.56,2.54l-1.2,2.96c-3.82-1.78-6.3-2.17-10.17-2.17-8.69,0-12.01,5.29-12.01,13.01v46.66h-3.68v-46.33Z"/><path class="cls-3" d="M150.52,398.34c0-13.48,9.91-21.75,20.73-21.75s18.49,7.27,18.49,19.14c0,1.07-.05,2.12-.22,3.18h-37.1v-3.25h35.45l-1.62,1.54c0-11.72-6.1-17.33-14.96-17.33s-16.85,6.74-16.85,18.35,8.32,18.5,18.12,18.5c5.62,0,10.02-1.8,13.88-4.46l1.58,2.89c-3.76,2.44-8.41,4.87-15.69,4.87-11.95,0-21.81-8.1-21.81-21.67Z"/><path class="cls-3" d="M203.83,408.7c0-9.26,9.29-13.64,31.72-15.61-.07-6.81-2.83-13.14-12.3-13.14-6.24,0-12.27,3.21-15.65,5.62l-1.78-2.82c3.3-2.38,10.49-6.16,17.88-6.16,11.08,0,15.67,7.12,15.67,15.97v26.42h-3.25l-.42-6.19h-.2c-4.75,3.81-11.16,7.22-17.27,7.22-7.4,0-14.42-3.58-14.42-11.32Zm31.72,.54v-13.24c-21.05,1.88-27.8,5.85-27.8,12.49,0,5.93,5.56,8.2,11.14,8.2s10.83-2.55,16.66-7.46Z"/><path class="cls-3" d="M262.03,377.62h3.25l.44,10.22h.17c4.46-6.62,11.19-11.25,19.44-11.25,2.79,0,5.69,.37,8.33,1.72l-1.07,3.42c-3.05-1.07-4.54-1.5-7.81-1.5-6.92,0-13.17,3.5-18.92,12.91v25.84h-3.83v-41.36Z"/><path class="cls-3" d="M309.84,362.23h14.39c11.67,0,18.56,4.32,18.56,13.78,0,5.91-3.31,10.66-10.03,12.38v.34c8.39,1.23,13.53,5.83,13.53,13.71,0,10.92-7.86,16.54-20.96,16.54h-15.49v-56.76Zm12.81,24.9c11.66,0,16.22-3.73,16.22-10.96s-5.11-10.55-15.75-10.55h-9.33v21.51h8.86Zm1.65,28.46c11.53,0,18.07-4,18.07-13.11,0-8.17-6.47-11.95-18.07-11.95h-10.51v25.06h10.51Z"/><path class="cls-3" d="M357.83,398.39c0-13.85,9.21-21.8,20.04-21.8s20.04,7.95,20.04,21.8-9.21,21.63-20.04,21.63-20.04-7.95-20.04-21.63Zm36.09,0c0-10.9-6.72-18.43-16.05-18.43s-16.05,7.53-16.05,18.43,6.72,18.26,16.05,18.26,16.05-7.38,16.05-18.26Z"/><path class="cls-3" d="M423.43,403.52v-22.57h-12.51v-2.96l12.58-.37,.51-13.69h3.25v13.69h22.01v3.33h-22.01v22.85c0,8.06,2.31,12.88,11.54,12.88,4.32,0,7.67-.84,11-2.15l1.05,2.93c-3.79,1.5-7.52,2.56-12.59,2.56-11.35,0-14.81-6.66-14.81-16.5Z"/><path class="cls-3" d="M476.77,414.39c0-3.55,2.47-5.63,5.16-5.63s5.16,2.07,5.16,5.63-2.47,5.63-5.16,5.63-5.16-2.05-5.16-5.63Z"/></g></svg>