<?xml version="1.0" encoding="UTF-8"?><svg id="Layer_2" xmlns="http://www.w3.org/2000/svg" viewBox="0 0 600 500"><defs><style>.cls-1{fill:none;stroke:#f4bd48;stroke-miterlimit:10;stroke-width:3px;}.cls-2{fill:#f4bd48;}.cls-3{fill:#fff;}</style></defs><g><rect x=".5" y=".5" width="600" height="500"/><path d="M600.5,500h-13.61c-12.39,0-24.79,0-37.18,0-18.62,0-37.24,0-55.86,0h-68.98c-25.71,0-51.43,0-77.14,0H189.22c-23.68,0-47.35,0-71.03,0-19.44,0-38.89,0-58.33,0H19.07c-4.07,0-8.14,0-12.21,0-1.56,0-4.42-.57-5.9,0-.8,.31,.13-.2,.04,.38,.08-.54,0-1.15,0-1.7v-48.47c0-20.08,0-40.16,0-60.25,0-24.52,0-49.05,0-73.57v-79.69c0-26.24,0-52.47,0-78.71,0-23.24,0-46.48,0-69.72V34.48c0-10.02,0-20.04,0-30.07,0-.97,.11-2.02,0-2.98-.15-1.28,.32-.45-.49-.44,1.26-.02,2.53,0,3.79,0,8.83,0,17.65,0,26.48,0h47.6c21.16,0,42.32,0,63.48,0,24.63,0,49.26,0,73.88,0,26.45,0,52.91,0,79.36,0s53.14,0,79.71,0c25.06,0,50.12,0,75.18,0,21.65,0,43.3,0,64.95,0,16.68,0,33.35,0,50.03,0,9.86,0,19.72,0,29.58,0,1.59,0,4.07,.48,5.6,0,.63-.2-.13-.47-.15-.33-.1,.59,0,1.29,0,1.89,0,8.83,0,17.66,0,26.5,0,16.97,0,33.94,0,50.92,0,22.75,0,45.51,0,68.26,0,25.9,0,51.79,0,77.69s0,53.3,0,79.95,0,49.88,0,74.82v119.79c0,.64,1,.64,1,0V20.88c0-6.47,.38-13.07,0-19.53-.02-.28,0-.57,0-.85s-.23-.5-.5-.5H24.86C17.08,0,9.29-.14,1.52,0c-.34,0-.68,0-1.02,0C.23,0,0,.23,0,.5V480.12c0,6.47-.38,13.07,0,19.53,.02,.28,0,.57,0,.85s.23,.5,.5,.5H576.14c7.77,0,15.56,.14,23.34,0,.34,0,.68,0,1.02,0,.64,0,.64-1,0-1Z"/></g><path class="cls-3" d="M326.04,289.17c-1.56-3.01-2.34-6.52-2.34-10.54,0-4.3,.86-7.89,2.58-10.78,1.72-2.89,4.06-5.05,7.02-6.51s6.32-2.18,10.08-2.18,7.05,.84,9.87,2.5c2.81,1.67,4.99,4,6.53,6.99s2.31,6.5,2.31,10.51c0,4.3-.86,7.9-2.58,10.78-1.72,2.89-4.06,5.05-7.02,6.51-2.96,1.45-6.32,2.18-10.08,2.18s-7.04-.83-9.84-2.47c-2.8-1.65-4.97-3.98-6.53-6.99Zm25.57-9.46c0-3.83-.8-6.73-2.39-8.68-1.59-1.95-3.72-2.93-6.37-2.93s-4.63,.87-6.26,2.61c-1.63,1.74-2.45,4.2-2.45,7.39,0,3.84,.81,6.73,2.45,8.68,1.63,1.95,3.77,2.93,6.42,2.93s4.61-.87,6.21-2.61c1.6-1.74,2.39-4.2,2.39-7.39Z"/><path class="cls-3" d="M387.22,205.08c-1.76-.61-3.37-1.03-4.84-1.26-1.47-.23-3.01-.35-4.63-.35-1.86,0-3.12,.23-3.76,.7-.65,.47-.97,1.06-.97,1.77,0,.64,.24,1.26,.73,1.83,.48,.57,1.39,1.22,2.72,1.94l3.6,1.94c3.01,1.58,5.21,3.29,6.59,5.13,1.38,1.85,2.07,4.04,2.07,6.59,0,3.41-1.17,6.05-3.52,7.93-2.35,1.88-6.19,2.82-11.53,2.82-1.76,0-3.34-.06-4.76-.19-1.42-.13-2.98-.37-4.7-.73l-.54-9.19c1.93,.54,3.58,.9,4.95,1.08,1.36,.18,2.78,.27,4.25,.27,2.33,0,3.88-.26,4.65-.78,.77-.52,1.16-1.21,1.16-2.07,0-.64-.27-1.27-.81-1.88-.54-.61-1.54-1.31-3.01-2.1l-3.6-1.83c-2.83-1.47-4.91-3.13-6.24-4.97-1.33-1.85-1.99-4.01-1.99-6.48,0-3.3,1.24-5.89,3.74-7.77,2.49-1.88,6.17-2.82,11.05-2.82,1.69,0,3.14,.08,4.36,.24s2.71,.46,4.46,.89l.59,9.3Z"/><path class="cls-3" d="M366.5,265.78c0-.93-.02-1.91-.05-2.93-.04-1.02-.13-2.03-.27-3.04h10.97c-.14,1.01-.24,2.02-.3,3.04-.05,1.02-.08,2-.08,2.93v15.81c0,2.69,.5,4.7,1.51,6.05,1,1.35,2.6,2.02,4.79,2.02,4.37,0,6.56-2.69,6.56-8.06v-15.81c0-1.93-.11-3.92-.32-5.97h10.48c-.14,1.01-.23,2.02-.27,3.04-.04,1.02-.05,2-.05,2.93v16.02c0,3.48-.56,6.47-1.69,8.98-1.13,2.51-2.9,4.44-5.32,5.81-2.42,1.36-5.58,2.04-9.49,2.04s-7.07-.68-9.49-2.04c-2.42-1.36-4.19-3.3-5.3-5.81-1.11-2.51-1.67-5.5-1.67-8.98v-16.02Z"/><path class="cls-3" d="M439.22,201.26c.36-1.04,.64-2.06,.86-3.06,.21-1,.39-1.97,.54-2.9h13.6c.18,.93,.4,1.9,.67,2.9,.27,1,.55,2.03,.83,3.06l11.13,32.21h-11.99c-.07-1.04-.21-2.07-.4-3.09-.2-1.02-.44-2-.72-2.93l-.27-.86h-12.47l-.27,.86c-.29,1-.53,2.01-.73,3.01-.2,1-.33,2.01-.4,3.01h-11.45l11.08-32.21Zm3.92,18.01h8.17l-4.09-13.66-4.09,13.66Z"/><path class="cls-3" d="M122.12,265.78c0-1.93-.11-3.92-.32-5.97h13.98c4.91,0,8.6,1.26,11.08,3.79,2.47,2.53,3.71,5.87,3.71,10.03s-1.33,7.82-3.98,10.46c-2.65,2.63-6.65,3.95-11.99,3.95h-2.47v3.98c0,1,.02,2,.05,2.98,.03,.99,.13,1.98,.27,2.99h-10.65c.22-2.01,.32-4,.32-5.97v-26.24Zm19.03,8.28c0-4.01-2.29-6.02-6.88-6.02h-2.15v12.42h2.04c4.66,0,6.99-2.13,6.99-6.4Z"/><path class="cls-3" d="M183.77,201.26c0-1.94-.11-3.93-.32-5.97h12.58c6.99,0,12.32,1.58,16,4.73,3.67,3.15,5.51,7.89,5.51,14.19s-1.77,11.05-5.3,14.33c-3.53,3.28-8.72,4.92-15.57,4.92h-13.23c.14-1,.23-2,.27-2.98,.03-.99,.05-1.98,.05-2.98v-26.24Zm23.44,12.96c0-3.8-.9-6.53-2.69-8.2-1.79-1.67-4.45-2.5-7.96-2.5h-2.53v21.72h2.53c3.51,0,6.16-.85,7.96-2.55,1.79-1.7,2.69-4.52,2.69-8.47Z"/><path class="cls-3" d="M425.44,205.29c.64,0,.64-1,0-1s-.64,1,0,1h0Z"/><path class="cls-3" d="M291.44,265.78c0-.93-.03-1.91-.08-2.93-.05-1.02-.17-2.03-.35-3.04h14.03c5.09,0,8.77,1.01,11.02,3.01,2.26,2.01,3.39,4.82,3.39,8.44,0,2.11-.44,3.96-1.32,5.54-.88,1.58-2.46,2.88-4.76,3.92,1.69,.72,2.92,1.71,3.71,2.98,.79,1.27,1.51,3.06,2.15,5.35l.91,3.55c.46,1.97,1.11,3.76,1.94,5.38h-10.65l-1.67-6.56c-.39-1.69-.88-2.94-1.45-3.76s-1.31-1.38-2.2-1.67c-.9-.28-2.04-.43-3.44-.43h-1.13v6.45c0,1,.03,2,.08,2.98,.05,.99,.17,1.98,.35,2.99h-10.91c.14-1,.24-2,.3-2.99,.05-.98,.08-1.98,.08-2.98v-26.24Zm18.5,7.26c0-1.58-.46-2.8-1.37-3.66-.91-.86-2.46-1.29-4.65-1.29h-2.37v10h2.47c2.22,0,3.76-.46,4.62-1.37,.86-.91,1.29-2.14,1.29-3.68Z"/><path class="cls-3" d="M424.95,204.79h0l.02,.14s.03,.09,.05,.13c.05,.08,.11,.15,.19,.19l-.1-.79c-.08,.09-.1,.12-.14,.24-.02,.05-.02,.1-.02,.15,0,.02,0,.04,0,.06,0,.05,0,.09-.01,.14,0,.07,.01,.13,.04,.19,.02,.06,.05,.12,.1,.16,.05,.05,.1,.08,.16,.1,.06,.03,.12,.05,.19,.04l.13-.02c.08-.02,.16-.07,.22-.13l.08-.1c.05-.08,.07-.16,.07-.25,0-.04,0-.07,.01-.11,0-.03,0-.07,0-.1l-.02,.13v-.02l-.05,.12h0l-.08,.09h0c.06-.07,.1-.14,.13-.22,.02-.07,.02-.13,0-.2,0-.07-.02-.13-.06-.19-.04-.08-.1-.13-.18-.18h0l.1,.07h0l.08,.1h0l.05,.11h0l.02,.13h0c0-.08-.01-.14-.04-.2-.02-.06-.05-.12-.1-.16-.05-.05-.1-.08-.16-.1-.06-.03-.12-.05-.19-.04l-.13,.02c-.08,.02-.16,.07-.22,.13l-.08,.1c-.05,.08-.07,.16-.07,.25h0Z"/><path class="cls-3" d="M425.45,205.35c.64,0,.64-1,0-1s-.64,1,0,1h0Z"/><path class="cls-3" d="M282,214.22h22.31v8.01h-22.31v-8.01Z"/><path class="cls-3" d="M193.15,265.78c.36-1.04,.65-2.06,.86-3.06,.22-1,.39-1.97,.54-2.9h13.6c.18,.93,.4,1.9,.67,2.9,.27,1.01,.55,2.03,.83,3.06l11.13,32.21h-11.99c-.07-1.04-.21-2.07-.4-3.09-.2-1.02-.44-2-.73-2.93l-.27-.86h-12.47l-.27,.86c-.29,1-.53,2.01-.73,3.01-.2,1-.33,2.01-.4,3.01h-11.45l11.08-32.21Zm3.93,18.01h8.17l-4.09-13.66-4.09,13.66Z"/><path class="cls-3" d="M423.16,200.81c.38,.67,.73,1.36,1.05,2.05,.16,.34,.3,.69,.47,1.02,.07,.13,.15,.26,.23,.39,.01,.02,.09,.18,.06,.11,.01,.03,.02,.06,.03,.1,0-.05,0-.04,0,.02,0,.27,.22,.5,.5,.5s.51-.23,.5-.5c-.01-.36-.16-.64-.34-.93-.21-.34-.35-.71-.52-1.07-.35-.74-.71-1.48-1.12-2.19-.32-.56-1.18-.06-.86,.5h0Z"/><path class="cls-1" d="M46.46,251.2c-1.37,.03-1.6,1.97-.28,2.34l67.49,18.62s15.6,3.9,24.69,23.39,29.89,40.29,33.79,40.29,10.4,2.6,23.39-72.78c13-75.38,20.8-106.58,63.69-84.48s37.69,150.77,68.88,176.76,33.79-158.56,71.48-167.66c37.69-9.1,23.39,55.89,68.88,64.99,31.91,6.38,67.03,3.17,85.14,.68,1.45-.2,1.39-2.31-.07-2.42-21.98-1.77-67.8-10.04-92.87-47.65-33.79-50.69-39.11-35.88-40.29-22.1-1.33,15.59-14.3,144.27-38.99,153.37s-50.69-24.69-61.09-54.59c-10.4-29.89-24.88-139.75-51.99-137.77-24.81,1.82-28.59,132.57-61.09,170.26-32.49,37.69-44.19-40.29-44.19-40.29,0,0-1.42-38.47-69.92-24.49-11.49,2.35-34.43,3.23-46.69,3.54Z"/><path class="cls-3" d="M471.37,201.26c0-.93-.02-1.91-.05-2.93-.04-1.02-.13-2.03-.27-3.04h10.91c-.14,1-.23,2.02-.27,3.04-.04,1.02-.05,2-.05,2.93v23.93h7.04c1.18,0,2.36-.02,3.52-.05,1.16-.04,2.32-.11,3.47-.22v8.55h-24.62c.14-1,.23-2,.27-2.98,.03-.99,.05-1.98,.05-2.98v-26.24Z"/><path class="cls-3" d="M115.21,201.26c.36-1.04,.65-2.06,.86-3.06,.22-1,.39-1.97,.54-2.9h13.6c.18,.93,.4,1.9,.67,2.9,.27,1,.55,2.03,.83,3.06l11.13,32.21h-11.99c-.07-1.04-.21-2.07-.4-3.09-.2-1.02-.44-2-.73-2.93l-.27-.86h-12.47l-.27,.86c-.29,1-.53,2.01-.73,3.01-.2,1-.33,2.01-.4,3.01h-11.45l11.08-32.21Zm3.93,18.01h8.17l-4.09-13.66-4.09,13.66Z"/><path class="cls-3" d="M240.68,224.65c-1.56-3.01-2.34-6.52-2.34-10.54,0-4.3,.86-7.89,2.58-10.78,1.72-2.89,4.06-5.05,7.02-6.51,2.96-1.45,6.32-2.18,10.08-2.18s7.05,.83,9.87,2.5c2.81,1.67,4.99,4,6.53,6.99,1.54,2.99,2.31,6.5,2.31,10.51,0,4.3-.86,7.9-2.58,10.78-1.72,2.89-4.06,5.05-7.02,6.51-2.96,1.45-6.32,2.18-10.08,2.18s-7.04-.82-9.84-2.47c-2.8-1.65-4.97-3.98-6.53-6.99Zm25.57-9.46c0-3.84-.8-6.73-2.39-8.68-1.6-1.95-3.72-2.93-6.37-2.93s-4.63,.87-6.26,2.61c-1.63,1.74-2.45,4.2-2.45,7.39,0,3.84,.81,6.73,2.45,8.68,1.63,1.95,3.77,2.93,6.43,2.93s4.61-.87,6.21-2.61c1.59-1.74,2.39-4.2,2.39-7.39Z"/><path class="cls-3" d="M144.35,201.26c0-.93-.02-1.91-.05-2.93-.04-1.02-.13-2.03-.27-3.04h10.97c-.14,1-.24,2.02-.3,3.04-.05,1.02-.08,2-.08,2.93v15.81c0,2.69,.5,4.71,1.51,6.05,1,1.34,2.6,2.02,4.79,2.02,4.37,0,6.56-2.69,6.56-8.07v-15.81c0-1.94-.11-3.93-.32-5.97h10.48c-.14,1-.23,2.02-.27,3.04-.04,1.02-.05,2-.05,2.93v16.02c0,3.48-.56,6.47-1.69,8.98-1.13,2.51-2.9,4.44-5.32,5.81-2.42,1.36-5.58,2.04-9.49,2.04s-7.07-.68-9.49-2.04c-2.42-1.36-4.19-3.3-5.3-5.81-1.11-2.51-1.67-5.5-1.67-8.98v-16.02Z"/><path class="cls-3" d="M438.97,297.99h-8.6l-14.84-22.21v16.24c0,1,.02,2,.05,2.98,.04,.99,.12,1.98,.27,2.99h-10.22c.14-1,.23-2,.27-2.99,.03-.98,.05-1.98,.05-2.98v-25.22c0-1.33-.13-2.51-.4-3.55-.27-1.04-.78-2.19-1.53-3.44h11.88l13.5,20.7v-14.73c0-1-.02-2-.05-2.98s-.13-1.98-.27-2.99h10.27c-.14,1.01-.24,2-.3,2.99-.05,.98-.08,1.98-.08,2.98v32.21Z"/><path class="cls-3" d="M155.3,265.78c0-.93-.02-1.91-.05-2.93-.04-1.02-.13-2.03-.27-3.04h10.91c-.14,1.01-.23,2.02-.27,3.04-.04,1.02-.05,2-.05,2.93v23.93h7.04c1.18,0,2.36-.02,3.52-.05,1.16-.04,2.32-.11,3.47-.22v8.55h-24.63c.14-1,.23-2,.27-2.99,.03-.98,.05-1.98,.05-2.98v-26.24Z"/><path class="cls-3" d="M222.8,201.26c0-1.94-.11-3.93-.32-5.97h10.91c-.22,2.04-.32,4.03-.32,5.97v26.24c0,1.97,.11,3.96,.32,5.97h-10.91c.22-2.01,.32-4,.32-5.97v-26.24Z"/><path class="cls-3" d="M304.37,195.29h11.94c.07,1,.2,1.98,.38,2.93,.18,.95,.39,1.89,.64,2.82l6.51,22.47,6.56-22.47c.5-1.79,.84-3.71,1.02-5.75h11.4l-10.86,32.69c-.32,.93-.6,1.86-.83,2.8-.23,.93-.39,1.83-.46,2.69h-14.09c-.07-.86-.22-1.76-.46-2.69-.23-.93-.49-1.86-.78-2.8l-10.97-32.69Z"/><path class="cls-3" d="M347.17,201.26c0-1.94-.11-3.93-.32-5.97h10.92c-.22,2.04-.32,4.03-.32,5.97v26.24c0,1.97,.11,3.96,.32,5.97h-10.92c.22-2.01,.32-4,.32-5.97v-26.24Z"/><path class="cls-3" d="M239.6,286.86v5.16c0,1,.02,2,.05,2.98,.04,.99,.13,1.98,.27,2.99h-10.91c.14-1,.23-2,.27-2.99,.03-.98,.05-1.98,.05-2.98v-5.27l-13.12-26.94h12.37c.11,.9,.26,1.73,.46,2.5,.2,.77,.44,1.57,.73,2.39l4.95,12.74,4.89-12.74c.32-.83,.58-1.62,.78-2.39,.2-.77,.35-1.6,.46-2.5h11.88l-13.12,27.05Z"/><path class="cls-3" d="M284.45,297.5c-1.61,.36-3.26,.64-4.95,.83-1.69,.2-3.51,.3-5.48,.3-7.13,0-12.59-1.69-16.37-5.05-3.78-3.37-5.67-8.33-5.67-14.89,0-4.41,.92-8.06,2.77-10.94,1.85-2.89,4.42-5.04,7.72-6.45,3.3-1.42,7.15-2.12,11.56-2.12,1.9,0,3.68,.11,5.35,.32,1.67,.22,3.15,.54,4.44,.97l.48,9.62c-3.05-1.08-6.26-1.61-9.62-1.61-3.84,.04-6.79,.9-8.87,2.58-2.08,1.69-3.12,4.25-3.12,7.69s.94,6.16,2.82,7.93,4.49,2.66,7.82,2.66c.72,0,1.38-.07,1.99-.22v-5.16c0-.93-.04-1.85-.11-2.74-.07-.89-.14-1.79-.22-2.69l9.46-.05v19.03Z"/><path class="cls-3" d="M445.75,265.78c0-1.93-.11-3.92-.32-5.97h12.58c6.99,0,12.32,1.58,16,4.73,3.67,3.16,5.51,7.89,5.51,14.2s-1.77,11.05-5.3,14.33c-3.53,3.28-8.72,4.92-15.56,4.92h-13.23c.14-1,.23-2,.27-2.99,.04-.98,.05-1.98,.05-2.98v-26.24Zm23.44,12.96c0-3.8-.9-6.53-2.69-8.2s-4.44-2.5-7.96-2.5h-2.53v21.72h2.53c3.51,0,6.16-.85,7.96-2.55,1.79-1.7,2.69-4.52,2.69-8.47Z"/><path class="cls-3" d="M310.83,260.37c2.2,.49,3.95,1.31,5.23,2.45,2.26,2.01,3.39,4.82,3.39,8.44,0,2.11-.44,3.96-1.32,5.54-.88,1.58-2.46,2.88-4.76,3.92,1.69,.72,2.92,1.71,3.71,2.98,.79,1.27,1.51,3.06,2.15,5.35l.91,3.55c.46,1.97,1.11,3.76,1.94,5.38h-7.88l-3.37-37.62Z"/><path class="cls-3" d="M215.86,283.73l4.93,14.26h-9.47l4.54-14.26Z"/><g><path class="cls-3" d="M423.87,195.29l2.05,3.26c0,.3-.02,.58-.02,.87,0-.36,.02-.72,.03-1.09,.04-1.02,.13-2.03,.27-3.04h-2.33Z"/><path class="cls-3" d="M415.72,195.29c.22,2.04,.32,4.03,.32,5.97v15.81c0,5.38-2.19,8.07-6.56,8.07-2.19,0-3.78-.67-4.79-2.02-1-1.34-1.51-3.36-1.51-6.05v-15.81c0-.93,.03-1.91,.08-2.93,.05-1.02,.15-2.03,.3-3.04h-10.97c.14,1,.23,2.02,.27,3.04,.04,1.02,.05,2,.05,2.93v16.02c0,3.48,.56,6.47,1.67,8.98,1.11,2.51,2.88,4.44,5.3,5.81,2.42,1.36,5.58,2.04,9.49,2.04s7.07-.68,9.49-2.04c2.42-1.36,4.19-3.3,5.32-5.81,1.13-2.51,1.69-5.5,1.69-8.98v-12.15l-4.9-9.84h-5.27Z"/><path class="cls-3" d="M425.89,199.87c0,.47-.01,.93-.01,1.38,0-.45,0-.91,.01-1.38Z"/></g><path class="cls-3" d="M423.87,195.29h2.33c-.14,1-.23,2.02-.27,3.04v.22l-2.06-3.26Z"/><path class="cls-2" d="M426.33,201.09l-.12-1.17c-.02-.21-.04-.43-.08-.64-.02-.09-.05-.18-.08-.27-.02-.06-.06-.13-.08-.19,.03,.06,.03,.07,0,.02,0,.07,0,.08,0,.03,.01-.26-.24-.51-.5-.5-.28,.01-.48,.22-.5,.5,0,.16,.05,.28,.11,.43,.04,.1-.02-.08,0,.02,.02,.05,.03,.1,.05,.15,.01,.04,.02,.08,.03,.12s.02,.12,0,.03c.02,.1,.02,.2,.03,.3l.12,1.17c.01,.14,.05,.25,.15,.35,.09,.09,.23,.15,.35,.15,.25-.01,.53-.22,.5-.5h0Z"/></svg>