<?xml version="1.0" encoding="UTF-8"?><svg id="Layer_5" xmlns="http://www.w3.org/2000/svg" xmlns:xlink="http://www.w3.org/1999/xlink" viewBox="0 0 600 500"><defs><style>.cls-1{fill:none;}.cls-2{fill:#d0004f;}.cls-3{fill:#dceeed;}</style><clipPath id="clippath"><path class="cls-1" d="M-385.86,258.77c3.73-8.38,9.51-17.49,17.34-27.39,12.35-16.62,33.54-24.52,58.07-33.66,23.5-8.76,50.14-18.69,72.04-38.21,14.82-13.21,36.65-15.27,53.08-5h0c21.56,13.48,25.24,40.46,24.53,60.73-.55,15.73-3.76,31.55-9.53,47.03-6.34,16.99-14.87,34.31-34.3,45.87-19.9,11.84-48.19,15.96-89,12.95-6.26-.46-12.34-.69-18.08-.67-20.6,.05-63.45,.16-75.98-25.68-4.94-10.18-4.35-22.07,1.83-35.96Zm187.28-83.06h0c-7.08-4.42-16.62-3.41-23.2,2.46-25.41,22.65-54.38,33.45-79.94,42.98-20.87,7.78-38.9,14.5-46.81,25.24l-.27,.36c-19.79,24.96-17.55,34.69-16.39,37.08,1.94,4,8.67,7.3,18.95,9.28,10.74,2.07,22.92,2.33,34.47,2.3,6.37-.02,13.09,.23,19.98,.74,34.97,2.58,59.3-.53,74.38-9.5,12.11-7.2,18.03-18.01,23.66-33.11,4.83-12.96,7.51-26.14,7.97-39.17,.48-13.68-1.35-31.5-12.79-38.65Z"/></clipPath><clipPath id="clippath-2"><path class="cls-1" d="M-115.47,437.79c-15.22,18.13-34.73,30.33-58.68,30.67-37.82,.54-59.75-40.19-67.66-78.48l-.08-.38c-.09-.42-.17-.84-.27-1.25h0c-2.03-8.27-1.1-25.57,14.83-61.05,10.43-23.24,30.15-39.77,57-47.82,18.92-5.67,38.43-6.09,49.39-4.72,12.11,1.51,24.23,9.4,32.41,21.13,8.11,11.62,16.18,32.42,8.51,65.49-6.34,27.33-18.1,55.73-35.45,76.42Zm-99.92-55.75c.16,.68,.31,1.36,.45,2.05l.07,.33c.48,2.32,12.1,56.95,40.34,56.55,35.42-.51,58.62-46.54,67.73-85.81,5.39-23.22,.65-36.49-4.27-43.53-4.8-6.87-10.77-9.27-13.26-9.58-6.69-.83-22.24-.98-38.1,3.78-19.25,5.77-32.64,16.78-39.81,32.74-13.9,30.96-13.25,42.43-13.15,43.47Zm-.06-.26s.02,.09,.03,.14c-.01-.05-.02-.1-.03-.14h0Z"/></clipPath><clipPath id="clippath-4"><path class="cls-1" d="M-140.9-35.32c7.78,4.86,16,11.85,24.71,20.98C-101.45,.21-96.57,22.3-90.93,47.86c5.4,24.49,11.53,52.25,27.81,76.66,11.02,16.52,10.02,38.42-2.44,53.26h0c-16.35,19.48-43.58,19.36-63.55,15.84-15.5-2.74-30.72-8.11-45.24-15.98-15.94-8.64-31.9-19.5-40.64-40.35-8.96-21.36-9.1-49.94-.44-89.94,1.33-6.14,2.4-12.13,3.18-17.81,2.82-20.4,8.68-62.86,36-71.67,10.77-3.47,22.46-1.24,35.35,6.81Zm56.19,197.02h0c5.36-6.39,5.69-15.98,.79-23.32-18.89-28.31-25.56-58.51-31.43-85.15-4.8-21.75-8.94-40.54-18.48-49.86l-.31-.32c-21.96-23.07-31.91-22.21-34.44-21.4-4.23,1.36-8.43,7.57-11.83,17.48-3.55,10.35-5.5,22.37-7.08,33.81-.87,6.31-2.05,12.93-3.52,19.68-7.42,34.27-7.73,58.8-.94,74.98,5.45,12.99,15.32,20.36,29.5,28.04,12.16,6.59,24.84,11.08,37.68,13.34,13.48,2.38,31.38,3.05,40.06-7.29Z"/></clipPath></defs><rect width="600" height="500"/><path class="cls-3" d="M60.61,184.07v-10.6h-10.6v-10.6h21.2v10.6h31.81v-21.2H60.61v-10.6h-10.6v-21.2h10.6v-10.6h53.01v10.6h10.6v10.6h-21.2v-10.6h-31.81v21.2h42.41v10.6h10.6v21.2h-10.6v10.6H60.61Z"/><path class="cls-3" d="M135.16,184.07V109.85h21.2v31.81h31.81v-31.81h21.2v74.21h-21.2v-31.81h-31.81v31.81h-21.2Z"/><path class="cls-3" d="M230.92,184.07v-10.6h21.2v-53.01h-21.2v-10.6h63.61v10.6h-21.2v53.01h21.2v10.6h-63.61Z"/><path class="cls-2" d="M305.47,184.07V109.85h21.2v31.81h10.6v-10.6h10.6v-10.6h10.6v-10.6h21.2v10.6h-10.6v10.6h-10.6v10.6h-10.6v10.6h10.6v10.6h10.6v10.6h10.6v10.6h-31.81v-10.6h-10.6v-10.6h-10.6v21.2h-21.2Z"/><path class="cls-3" d="M390.63,184.07V109.85h74.21v10.6h-53.01v21.2h42.41v10.6h-42.41v21.2h53.01v10.6h-74.21Z"/><path class="cls-3" d="M475.79,184.07V109.85h21.2v10.6h10.6v10.6h10.6v10.6h10.6v-31.81h21.2v74.21h-21.2v-21.2h-10.6v-10.6h-10.6v-10.6h-10.6v42.41h-21.2Z"/><path class="cls-3" d="M50,390.15V239.86H178.81v21.47h21.47v42.94h-21.47v21.47h21.47v42.94h-21.47v21.47H50Zm42.94-85.87h64.41v-42.94H92.94v42.94Zm0,64.41h64.41v-42.94H92.94v42.94Z"/><path class="cls-3" d="M243.91,390.15v-21.47h-21.47v-107.34h21.47v-21.47h107.34v21.47h21.47v107.34h-21.47v21.47h-107.34Zm21.47-21.47h64.41v-107.34h-64.41v107.34Z"/><path class="cls-3" d="M416.34,390.15v-21.47h42.94v-107.34h-42.94v-21.47h128.81v21.47h-42.94v107.34h42.94v21.47h-128.81Z"/></svg>